<svg width="100%" height="100%" viewBox="0 0 1920 400" fill="none" xmlns="http://www.w3.org/2000/svg">
<path d="M0 0L53.3333 64.65C106.667 129.3 213.333 258.6 320 265.738C426.667 273.416 533.333 157.584 640 150.85C746.667 144.116 853.333 243.784 960 258.6C1066.67 273.416 1173.33 200.684 1280 186.812C1386.67 172.4 1493.33 215.5 1600 208.362C1706.67 200.684 1813.33 144.116 1866.67 114.888L1920 86.2V431H1866.67C1813.33 431 1706.67 431 1600 431C1493.33 431 1386.67 431 1280 431C1173.33 431 1066.67 431 960 431C853.333 431 746.667 431 640 431C533.333 431 426.667 431 320 431C213.333 431 106.667 431 53.3333 431H0V0Z" fill="#1D70A7" fill-opacity="0.22"/>
</svg>
